<?xml version="1.0" encoding="UTF-8"?>
<svg id="Layer_1" data-name="Layer 1" xmlns="http://www.w3.org/2000/svg" viewBox="0 0 566.93 119.81">
  <defs>
    <style>
      .cls-1 {
        fill: #fff;
      }

      .cls-2 {
        fill: #ffcd05;
      }

      .cls-3 {
        fill: #9e1c35;
      }

      .cls-4 {
        fill: #231f20;
      }

      .cls-5 {
        fill: #243e90;
      }
    </style>
  </defs>
  <g>
    <rect class="cls-5" x="297.08" y=".24" width="107.56" height="71.74"/>
    <g>
      <polygon class="cls-2" points="348.63 15.89 350.9 14.27 353.18 15.89 352.28 13.21 354.56 11.51 351.72 11.51 350.9 8.83 350.01 11.59 347.18 11.51 349.45 13.21 348.63 15.89"/>
      <polygon class="cls-2" points="336.88 19.05 339.15 17.35 341.42 19.05 340.53 16.37 342.88 14.67 339.97 14.67 339.15 12 338.26 14.67 335.42 14.67 337.69 16.37 336.88 19.05"/>
      <polygon class="cls-2" points="330.56 20.59 329.67 23.34 326.83 23.34 329.1 24.97 328.29 27.64 330.56 26.02 332.83 27.64 331.94 24.97 334.21 23.34 331.37 23.34 330.56 20.59"/>
      <polygon class="cls-2" points="327.4 37.69 329.67 39.4 328.78 36.72 331.13 35.02 328.29 35.02 327.4 32.34 326.51 35.1 323.67 35.02 325.94 36.72 325.13 39.4 327.4 37.69"/>
      <polygon class="cls-2" points="331.37 46.85 330.56 44.09 329.67 46.85 326.83 46.85 329.1 48.47 328.29 51.15 330.56 49.52 332.83 51.15 331.94 48.47 334.21 46.85 331.37 46.85"/>
      <polygon class="cls-2" points="340.04 55.45 339.15 52.69 338.26 55.45 335.42 55.45 337.77 57.06 336.88 59.74 339.15 58.12 341.42 59.74 340.53 57.06 342.88 55.45 340.04 55.45"/>
      <polygon class="cls-2" points="351.72 58.52 350.9 55.85 350.01 58.52 347.18 58.52 349.45 60.23 348.63 62.9 350.9 61.2 353.18 62.9 352.28 60.23 354.56 58.52 351.72 58.52"/>
      <polygon class="cls-2" points="363.47 55.45 362.58 52.69 361.77 55.45 358.93 55.45 361.2 57.06 360.31 59.74 362.58 58.12 364.85 59.74 364.04 57.06 366.31 55.45 363.47 55.45"/>
      <polygon class="cls-2" points="372.06 46.85 371.25 44.09 370.36 46.85 367.53 46.85 369.79 48.47 368.98 51.15 371.25 49.52 373.52 51.15 372.63 48.47 374.9 46.85 372.06 46.85"/>
      <polygon class="cls-2" points="378.06 35.02 375.22 35.02 374.33 32.34 373.44 35.02 370.6 35.02 372.96 36.64 372.06 39.4 374.33 37.69 376.6 39.4 375.79 36.64 378.06 35.02"/>
      <polygon class="cls-2" points="368.98 27.64 371.25 25.94 373.52 27.64 372.63 24.97 374.9 23.27 372.06 23.27 371.25 20.59 370.36 23.27 367.53 23.27 369.79 24.97 368.98 27.64"/>
      <polygon class="cls-2" points="362.66 12 361.77 14.67 358.93 14.67 361.2 16.37 360.39 19.05 362.66 17.35 364.93 19.05 364.04 16.37 366.39 14.67 363.55 14.67 362.66 12"/>
    </g>
  </g>
  <g>
    <path class="cls-4" d="m424.59,21.16h-7.62v-10.62h7.62v2.03h-4.95v1.86h4.62v2.03h-4.62v2.59h4.95v2.11Z"/>
    <path class="cls-4" d="m436.18,17.35c0,1.3-.41,2.27-1.21,3-.82.73-1.94,1.05-3.49,1.05s-2.76-.32-3.49-1.05c-.81-.73-1.22-1.7-1.22-3v-6.81h2.76v6.57c0,.73.17,1.3.49,1.62.32.33.81.57,1.46.57s1.21-.16,1.46-.49c.33-.32.49-.89.49-1.7v-6.57h2.76v6.81Z"/>
    <path class="cls-4" d="m448.91,21.16h-3.32l-2.92-3.89h-1.3v3.89h-2.67v-10.62h4.54c.65,0,1.14,0,1.62.08.49.08.89.24,1.3.49s.73.57.97.89c.24.4.32.81.32,1.38,0,.81-.16,1.46-.57,1.94-.32.49-.89.89-1.54,1.21l3.56,4.62Zm-4.29-7.38c0-.24-.09-.49-.16-.65-.09-.17-.33-.33-.57-.49-.16-.08-.41-.17-.65-.17h-1.87v2.92h.81c.4,0,.81,0,1.05-.08.33-.08.57-.17.73-.33.16-.16.32-.32.4-.49.24-.16.24-.4.24-.73Z"/>
    <path class="cls-4" d="m460.42,15.89c0,1.7-.49,3-1.46,4.06-.97.97-2.27,1.46-3.97,1.46s-3-.49-3.98-1.46c-.97-.97-1.46-2.35-1.46-4.06s.49-3.08,1.46-4.06c.98-.97,2.27-1.46,3.98-1.46s2.99.49,3.97,1.46,1.46,2.35,1.46,4.06Zm-3.65,2.68c.24-.33.49-.73.57-1.14.16-.4.16-.97.16-1.54,0-.65-.08-1.14-.24-1.62-.16-.4-.33-.81-.57-1.05-.25-.33-.48-.49-.81-.65-.32-.17-.65-.17-.97-.17s-.64.08-.97.17c-.33.16-.57.32-.82.65-.24.24-.4.65-.57,1.14s-.24.97-.24,1.62.08,1.14.24,1.62c.16.4.33.81.57,1.05.25.24.49.49.82.65.32.17.64.17.97.17s.65-.08.97-.17c.4-.24.65-.49.9-.73Z"/>
    <path class="cls-4" d="m471.2,13.94c0,.49-.08.97-.24,1.38-.17.49-.41.81-.73,1.14-.41.4-.89.73-1.37.97-.49.24-1.14.32-1.94.32h-1.71v3.49h-2.76v-10.7h4.46c.64,0,1.21.08,1.7.16s.89.33,1.21.49c.41.24.73.65.97,1.05.33.57.4,1.05.4,1.7Zm-2.83,0c0-.32-.08-.57-.24-.73-.16-.24-.32-.4-.57-.49-.32-.08-.57-.16-.81-.16h-1.54v3.16h.81c.48,0,.81,0,1.14-.08.32-.08.57-.16.73-.32.16-.17.33-.33.41-.57.08-.25.08-.49.08-.82Z"/>
    <path class="cls-4" d="m480.76,21.16h-7.62v-10.62h7.62v2.03h-4.95v1.86h4.62v2.03h-4.62v2.59h4.95v2.11Z"/>
    <path class="cls-4" d="m492.84,21.16h-2.84l-.73-2.11h-3.89l-.73,2.11h-2.76l3.89-10.62h3.16l3.89,10.62Zm-4.22-4.05l-1.3-3.81-1.3,3.81h2.59Z"/>
    <path class="cls-4" d="m504.02,21.16h-2.59l-4.46-7.3v7.3h-2.51v-10.62h3.24l3.89,6.08v-6.08h2.51v10.62h-.09Z"/>
    <path class="cls-4" d="m520.97,17.35c0,1.3-.41,2.27-1.21,3-.81.73-1.94,1.05-3.49,1.05s-2.76-.32-3.49-1.05c-.81-.73-1.21-1.7-1.21-3v-6.81h2.76v6.57c0,.73.16,1.3.48,1.62.32.33.81.57,1.46.57s1.22-.16,1.46-.49c.33-.32.49-.89.49-1.7v-6.57h2.76v6.81Z"/>
    <path class="cls-4" d="m533.13,21.16h-2.59l-4.46-7.3v7.3h-2.51v-10.62h3.24l3.89,6.08v-6.08h2.51v10.62h-.08Z"/>
    <path class="cls-4" d="m541.56,21.16h-6.16v-1.86h1.7v-6.81h-1.7v-1.94h6.16v1.86h-1.71v6.81h1.71v1.94Z"/>
    <path class="cls-4" d="m554.04,15.89c0,1.7-.49,3-1.46,4.06-.98.97-2.27,1.46-3.97,1.46s-3-.49-3.97-1.46c-.97-.97-1.46-2.35-1.46-4.06s.49-3.08,1.46-4.06,2.27-1.46,3.97-1.46,2.99.49,3.97,1.46c.97.97,1.46,2.35,1.46,4.06Zm-3.65,2.68c.25-.33.49-.73.57-1.14.16-.4.16-.97.16-1.54,0-.65-.08-1.14-.24-1.62-.16-.4-.33-.81-.57-1.05-.25-.33-.49-.49-.82-.65-.32-.17-.64-.17-.97-.17s-.65.08-.97.17c-.33.16-.57.32-.81.65-.24.24-.41.65-.57,1.14s-.24.97-.24,1.62.08,1.14.24,1.62c.16.4.33.81.57,1.05.25.24.48.49.81.65.32.17.65.17.97.17s.64-.08.97-.17c.41-.24.66-.49.9-.73Z"/>
    <path class="cls-4" d="m565.72,21.16h-2.59l-4.46-7.3v7.3h-2.51v-10.62h3.24l3.89,6.08v-6.08h2.51v10.62h-.08Z"/>
  </g>
  <g>
    <path class="cls-4" d="m424.02,46.2h-6.97v-10.62h6.97v1.21h-5.59v2.92h5.59v1.21h-5.59v3.89h5.59v1.37h0Z"/>
    <path class="cls-4" d="m432.69,46.2h-1.3v-.89c-.48.32-.89.65-1.3.81s-.89.33-1.38.33c-.81,0-1.46-.24-1.94-.73-.48-.49-.73-1.21-.73-2.27v-5.19h1.3v4.54c0,.4,0,.73.08,1.05,0,.32.08.57.24.73.16.24.33.33.49.49.24.08.49.16.89.16.32,0,.73-.08,1.14-.24.4-.16.81-.4,1.14-.65v-5.91h1.3v7.78s.07,0,.07,0Z"/>
    <path class="cls-4" d="m440.31,39.72h0c-.24-.08-.48-.08-.64-.08h-.65c-.4,0-.81.08-1.21.24-.4.17-.73.4-1.14.73v5.67h-1.3v-7.94h1.3v1.14c.57-.4.97-.73,1.37-.89.41-.17.81-.24,1.21-.24h.49c.08,0,.24,0,.49.08v1.3h.08Z"/>
    <path class="cls-4" d="m448.34,42.23c0,1.3-.33,2.35-.97,3.08-.64.73-1.54,1.14-2.68,1.14s-2.02-.4-2.67-1.14c-.65-.73-.97-1.78-.97-3.08s.32-2.35.97-3.08c.65-.73,1.54-1.14,2.67-1.14s2.03.4,2.68,1.14c.65.73.97,1.78.97,3.08Zm-1.38,0c0-1.05-.16-1.78-.57-2.27s-.97-.73-1.71-.73-1.29.24-1.7.73-.57,1.3-.57,2.27.16,1.78.57,2.27.97.81,1.7.81,1.3-.24,1.71-.73c.33-.57.57-1.37.57-2.35Z"/>
    <path class="cls-4" d="m457.33,42.15c0,.65-.08,1.21-.24,1.78-.17.57-.41.97-.82,1.38-.32.32-.64.65-1.13.81-.41.16-.89.33-1.38.33-.4,0-.81-.08-1.14-.17-.32-.08-.64-.24-1.05-.4v3.32h-1.3v-10.95h1.3v.81c.32-.33.73-.57,1.21-.73.41-.16.89-.32,1.37-.32.98,0,1.71.32,2.27,1.05.67.73.9,1.78.9,3.08Zm-1.37,0c0-.97-.16-1.71-.48-2.11-.32-.49-.81-.73-1.54-.73-.41,0-.82.08-1.14.24-.4.16-.73.4-1.14.65v4.46c.4.17.73.33.97.33.25.08.57.08.89.08.73,0,1.3-.24,1.7-.73.57-.49.73-1.22.73-2.19Z"/>
    <path class="cls-4" d="m466.09,42.39h-5.83c0,.49.08.89.24,1.3.16.33.33.65.57.89.25.24.57.4.89.49s.73.16,1.14.16c.57,0,1.05-.08,1.62-.32.57-.24.98-.4,1.14-.65h.08v1.46c-.48.17-.89.33-1.37.49-.48.16-.97.16-1.46.16-1.3,0-2.35-.32-3.08-1.05-.73-.73-1.14-1.71-1.14-3s.33-2.35,1.05-3.08,1.62-1.14,2.76-1.14c1.05,0,1.86.32,2.51.97.57.65.89,1.54.89,2.68v.64h0Zm-1.3-1.05c0-.73-.16-1.21-.57-1.62-.32-.4-.89-.57-1.62-.57s-1.29.24-1.7.65-.64.97-.73,1.54h4.63Z"/>
    <path class="cls-4" d="m474.28,46.2h-1.3v-.81c-.08.08-.24.16-.48.32-.16.17-.41.24-.57.33-.24.08-.48.16-.73.24-.32.08-.64.08-1.05.08-.73,0-1.29-.24-1.78-.73s-.73-1.05-.73-1.78c0-.57.17-1.05.4-1.46.25-.4.65-.65,1.14-.89.48-.24,1.05-.32,1.7-.4s1.37-.17,2.19-.17v-.24c0-.33-.09-.57-.17-.73-.08-.16-.24-.32-.48-.49-.17-.08-.4-.16-.65-.24-.24,0-.57-.08-.81-.08-.33,0-.73.08-1.14.16-.4.08-.89.24-1.3.4h-.08v-1.37c.24-.08.64-.16,1.14-.24s.97-.16,1.46-.16c.57,0,1.05.08,1.46.16s.81.24,1.05.49c.32.24.48.49.64.81.16.33.25.81.25,1.3v5.51s-.17,0-.17,0Zm-1.3-1.94v-2.19c-.4,0-.89.08-1.46.08-.57.08-.97.08-1.3.24-.41.08-.73.24-.89.49-.25.24-.32.57-.32.97,0,.49.16.81.4,1.05s.73.32,1.3.32c.48,0,.89-.08,1.3-.24.23-.24.64-.48.97-.73Z"/>
    <path class="cls-4" d="m483.52,46.2h-1.3v-4.54c0-.4,0-.73-.08-1.05-.08-.33-.08-.57-.24-.73-.08-.16-.33-.32-.49-.4-.24-.08-.48-.16-.89-.16s-.73.08-1.13.24c-.41.16-.82.4-1.14.65v6h-1.3v-7.95h1.3v.89c.41-.33.81-.65,1.3-.81.4-.16.89-.32,1.37-.32.89,0,1.54.24,1.94.81.48.49.64,1.3.64,2.27v5.11h0Z"/>
    <path class="cls-4" d="m499,43.21c0,.4-.08.81-.32,1.21-.16.4-.49.73-.81,1.05-.4.32-.81.57-1.3.73-.49.17-1.14.24-1.78.24-.73,0-1.46-.08-2.03-.24-.65-.16-1.21-.32-1.87-.65v-1.78h.09c.57.4,1.13.81,1.86,1.05s1.37.32,1.94.32c.89,0,1.54-.16,2.03-.49.49-.32.73-.73.73-1.3,0-.49-.08-.81-.32-1.05-.24-.24-.57-.4-1.05-.49-.32-.08-.73-.16-1.14-.24s-.89-.16-1.3-.24c-.97-.16-1.62-.57-2.11-1.05s-.64-1.14-.64-1.87c0-.89.4-1.62,1.13-2.19s1.71-.81,2.84-.81c.73,0,1.46.08,2.03.24.65.17,1.14.33,1.62.49v1.71h-.08c-.41-.32-.98-.65-1.62-.81-.64-.24-1.3-.33-2.03-.33s-1.38.17-1.78.49c-.49.33-.65.73-.65,1.21,0,.4.09.81.33,1.05.24.24.65.4,1.21.57.33.08.73.16,1.3.24.57.08,1.05.16,1.46.33.81.24,1.37.49,1.78.97.23.24.48.81.48,1.62Z"/>
    <path class="cls-4" d="m507.91,42.23c0,1.3-.32,2.35-.97,3.08-.65.73-1.54,1.14-2.68,1.14s-2.03-.4-2.68-1.14c-.64-.73-.97-1.78-.97-3.08s.32-2.35.97-3.08c.65-.73,1.54-1.14,2.68-1.14s2.03.4,2.68,1.14c.65.73.97,1.78.97,3.08Zm-1.37,0c0-1.05-.16-1.78-.57-2.27-.4-.49-.97-.73-1.7-.73s-1.3.24-1.7.73c-.41.49-.57,1.3-.57,2.27s.16,1.78.57,2.27c.4.49.97.81,1.7.81s1.3-.24,1.7-.73c.33-.57.57-1.37.57-2.35Z"/>
    <path class="cls-4" d="m515.86,45.72c-.41.24-.89.4-1.3.49-.4.08-.81.17-1.29.17-.57,0-1.14-.08-1.54-.24-.49-.16-.89-.4-1.21-.73-.33-.33-.65-.81-.81-1.3s-.32-1.14-.32-1.86c0-1.3.32-2.35,1.05-3.08.73-.73,1.62-1.14,2.84-1.14.48,0,.89.08,1.37.16.4.16.81.33,1.21.49v1.46h-.08c-.4-.33-.81-.57-1.3-.73-.41-.16-.89-.24-1.3-.24-.73,0-1.37.24-1.78.73-.4.49-.64,1.22-.64,2.27,0,.97.25,1.7.64,2.19.41.49,1.05.81,1.78.81.25,0,.57,0,.81-.08s.57-.16.73-.24c.16-.08.4-.24.57-.33s.32-.24.41-.33h.08v1.54h.08Z"/>
    <path class="cls-4" d="m518.94,36.96h-1.54v-1.38h1.54v1.38Zm-.08,9.24h-1.3v-7.95h1.3v7.95Z"/>
    <path class="cls-4" d="m527.7,46.2h-1.3v-.81c-.08.08-.25.16-.48.32-.17.17-.41.24-.57.33-.25.08-.48.16-.73.24-.32.08-.64.08-1.05.08-.73,0-1.3-.24-1.78-.73-.48-.49-.73-1.05-.73-1.78,0-.57.16-1.05.4-1.46.25-.4.65-.65,1.14-.89s1.05-.32,1.71-.4c.64-.08,1.37-.17,2.19-.17v-.24c0-.33-.08-.57-.16-.73-.08-.16-.24-.32-.49-.49-.16-.08-.4-.16-.64-.24-.25,0-.57-.08-.81-.08-.33,0-.73.08-1.14.16-.41.08-.89.24-1.3.4h-.08v-1.37c.24-.08.64-.16,1.13-.24s.98-.16,1.46-.16c.57,0,1.05.08,1.46.16.4.08.81.24,1.05.49.32.24.48.49.64.81.16.33.25.81.25,1.3v5.51s-.17,0-.17,0Zm-1.3-1.94v-2.19c-.41,0-.89.08-1.46.08-.57.08-.97.08-1.3.24-.4.08-.73.24-.89.49-.25.24-.33.57-.33.97,0,.49.16.81.4,1.05.25.24.73.32,1.3.32.48,0,.89-.08,1.3-.24.24-.24.65-.48.97-.73Z"/>
    <path class="cls-4" d="m531.59,46.2h-1.3v-11.11h1.3v11.11Z"/>
    <path class="cls-4" d="m423.78,54.31h-5.35v3h4.62v1.21h-4.62v5.11h-1.38v-10.54h6.73v1.22h0Z"/>
    <path class="cls-4" d="m431.88,63.63h-1.3v-.89c-.48.33-.89.65-1.3.81s-.89.32-1.37.32c-.81,0-1.46-.24-1.94-.73-.48-.48-.73-1.21-.73-2.27v-5.19h1.3v4.54c0,.4,0,.73.08,1.05.09.32.09.57.25.73.16.24.32.33.48.49.25.08.48.16.89.16.32,0,.73-.08,1.14-.24s.81-.4,1.14-.65v-5.92h1.3v7.78s.07,0,.07,0Z"/>
    <path class="cls-4" d="m441.13,63.63h-1.3v-4.46c0-.4,0-.73-.08-1.05-.08-.33-.08-.57-.24-.73-.09-.16-.32-.32-.49-.4-.24-.08-.49-.17-.89-.17s-.73.08-1.14.24c-.4.16-.81.4-1.14.65v5.92h-1.3v-7.95h1.3v.89c.4-.33.81-.65,1.3-.81.41-.16.89-.32,1.37-.32.89,0,1.54.24,1.94.81.49.49.65,1.3.65,2.27v5.11h0Z"/>
    <path class="cls-4" d="m450.12,63.63h-1.29v-.81c-.41.32-.82.57-1.21.81-.41.16-.89.24-1.38.24-.97,0-1.71-.32-2.27-1.05s-.81-1.7-.81-3c0-.65.08-1.3.32-1.78.16-.49.49-.97.81-1.38.33-.33.73-.65,1.14-.81.41-.16.89-.32,1.3-.32s.81.08,1.13.16c.33.08.65.24,1.05.4v-3.41h1.3v10.94h-.09Zm-1.29-1.94v-4.54c-.33-.16-.65-.24-.98-.33-.32-.08-.57-.08-.89-.08-.73,0-1.29.24-1.78.81-.4.49-.65,1.3-.65,2.19,0,.97.16,1.62.49,2.19.32.49.81.73,1.54.73.4,0,.73-.08,1.13-.24.41-.24.81-.48,1.14-.73Z"/>
  </g>
  <g>
    <path class="cls-4" d="m76.44,119.48h-4.22v-1.05h1.38v-8.43h-1.38v-1.05h4.22v1.05h-1.37v8.43h1.37v1.05Z"/>
    <path class="cls-4" d="m95.65,119.48h-1.7l-5.03-9.49v9.49h-1.3v-10.62h2.19l4.54,8.67v-8.67h1.3v10.62h0Z"/>
    <path class="cls-4" d="m115.51,108.87l-3.89,10.62h-1.87l-3.89-10.62h1.54l3.32,9.32,3.32-9.32h1.46Z"/>
    <path class="cls-4" d="m132.86,119.48h-6.97v-10.62h6.97v1.21h-5.59v2.92h5.59v1.21h-5.59v3.89h5.59v1.38Z"/>
    <path class="cls-4" d="m151.5,116.48c0,.4-.08.81-.32,1.21-.16.4-.49.73-.81,1.05-.4.33-.81.57-1.3.73s-1.14.24-1.78.24c-.73,0-1.46-.08-2.02-.24-.65-.16-1.22-.33-1.87-.65v-1.79h.08c.57.41,1.14.82,1.87,1.05.73.25,1.37.33,1.94.33.89,0,1.54-.16,2.03-.49.49-.32.73-.73.73-1.3,0-.48-.08-.81-.33-1.05-.24-.24-.57-.4-1.05-.48-.33-.08-.73-.17-1.14-.24-.4-.09-.89-.16-1.3-.25-.97-.16-1.62-.57-2.11-1.05-.48-.48-.65-1.14-.65-1.86,0-.89.4-1.62,1.14-2.19.73-.57,1.71-.81,2.84-.81.73,0,1.46.08,2.03.24.65.16,1.14.32,1.62.49v1.7h-.08c-.4-.32-.97-.64-1.62-.81-.65-.24-1.3-.32-2.02-.32s-1.38.16-1.78.49c-.49.32-.65.73-.65,1.21,0,.4.08.81.33,1.05s.65.4,1.21.57c.33.08.73.16,1.3.24.57.09,1.05.16,1.46.32.81.25,1.38.49,1.78.98.32.25.48.81.48,1.63Z"/>
    <path class="cls-4" d="m170.06,110.16h-3.81v9.32h-1.37v-9.32h-3.81v-1.21h9v1.21h0Z"/>
    <path class="cls-4" d="m183.93,119.48h-4.22v-1.05h1.37v-8.43h-1.37v-1.05h4.22v1.05h-1.38v8.43h1.38v1.05Z"/>
    <path class="cls-4" d="m203.14,119.48h-1.7l-5.03-9.49v9.49h-1.3v-10.62h2.19l4.54,8.67v-8.67h1.3v10.62Z"/>
    <path class="cls-4" d="m223.48,118.67c-.57.25-1.22.48-1.87.73-.65.16-1.38.32-2.03.32-.81,0-1.54-.08-2.27-.32-.65-.25-1.3-.57-1.78-1.05s-.89-1.05-1.14-1.71c-.24-.73-.4-1.46-.4-2.43,0-1.71.49-3,1.46-3.97.97-.97,2.35-1.46,4.06-1.46.57,0,1.21.08,1.87.24.65.16,1.3.41,2.02.73v1.7h-.16c-.16-.08-.32-.24-.65-.48-.24-.16-.57-.32-.81-.48-.32-.17-.73-.25-1.14-.41-.4-.08-.89-.16-1.37-.16-1.22,0-2.11.4-2.84,1.14s-1.05,1.78-1.05,3.08c0,1.37.33,2.43,1.05,3.16.73.73,1.7,1.14,2.92,1.14.49,0,.89-.08,1.37-.16s.81-.24,1.22-.33v-2.6h-2.84v-1.22h4.22v4.54s.16,0,.16,0Z"/>
    <path class="cls-4" d="m252.26,119.48h-4.22v-1.05h1.38v-8.43h-1.38v-1.05h4.22v1.05h-1.38v8.43h1.38v1.05Z"/>
    <path class="cls-4" d="m271.47,119.48h-1.7l-5.03-9.49v9.49h-1.3v-10.62h2.19l4.54,8.67v-8.67h1.3v10.62Z"/>
    <path class="cls-4" d="m304.38,108.87l-3.72,5.91v4.62h-1.38v-4.46l-3.72-6.07h1.54l2.92,4.7,2.92-4.7h1.45Z"/>
    <path class="cls-4" d="m322.29,110.08c.4.48.73,1.05.97,1.7.24.65.32,1.46.32,2.35s-.08,1.62-.32,2.35c-.25.73-.57,1.3-.97,1.71-.4.48-.97.81-1.54,1.05s-1.3.32-2.02.32-1.46-.16-2.03-.41c-.64-.24-1.13-.57-1.54-1.05-.41-.48-.73-1.05-.97-1.7s-.32-1.46-.32-2.35.08-1.62.32-2.35c.24-.65.57-1.3.97-1.78s.97-.81,1.54-1.05c.65-.25,1.3-.41,2.03-.41s1.46.16,2.02.41c.57.4,1.14.8,1.54,1.21Zm-.17,4.13c0-1.38-.32-2.44-.89-3.16-.65-.73-1.46-1.14-2.51-1.14s-1.94.4-2.51,1.14c-.64.73-.89,1.78-.89,3.16s.32,2.43.97,3.16c.65.73,1.46,1.14,2.51,1.14s1.87-.41,2.51-1.14c.57-.73.8-1.79.8-3.16Z"/>
    <path class="cls-4" d="m342.56,115.27c0,.73-.08,1.46-.25,2.03-.16.57-.4,1.05-.81,1.46-.41.33-.81.65-1.3.81-.48.16-1.05.24-1.7.24s-1.21-.08-1.7-.24-.89-.41-1.21-.81c-.41-.4-.65-.89-.82-1.37-.16-.57-.24-1.21-.24-2.03v-6.32h1.37v6.4c0,.57,0,1.05.08,1.38.09.32.25.64.41.89.25.33.48.57.81.73.32.16.81.24,1.3.24s.97-.08,1.3-.24c.32-.16.64-.4.89-.73.17-.24.33-.57.4-.89.09-.33.09-.82.09-1.3v-6.4h1.37v6.16h0Z"/>
    <path class="cls-4" d="m362.74,119.48h-1.86l-3.57-4.22h-1.94v4.22h-1.37v-10.62h3c.64,0,1.13.08,1.62.16.4.08.81.24,1.14.41.41.24.65.57.89.89.25.4.32.81.32,1.38,0,.73-.16,1.37-.57,1.94-.4.48-.89.89-1.62,1.13l3.97,4.7Zm-3.32-7.62c0-.32-.08-.57-.16-.81-.09-.24-.25-.4-.57-.57-.24-.17-.4-.25-.73-.33-.24-.08-.64-.08-.97-.08h-1.62v3.97h1.46c.4,0,.81,0,1.13-.08.33-.09.65-.25.82-.41.24-.16.4-.4.48-.64.16-.32.16-.64.16-1.05Z"/>
    <path class="cls-4" d="m393.46,110.16h-5.35v3h4.62v1.21h-4.62v5.11h-1.37v-10.62h6.73v1.3h0Z"/>
    <path class="cls-4" d="m411.7,115.27c0,.73-.08,1.46-.24,2.03-.16.57-.4,1.05-.81,1.46-.4.33-.81.65-1.3.81s-1.05.24-1.71.24-1.21-.08-1.7-.24-.89-.41-1.21-.81c-.41-.4-.65-.89-.81-1.37-.16-.57-.24-1.21-.24-2.03v-6.32h1.37v6.4c0,.57,0,1.05.08,1.38.08.32.24.64.4.89.25.33.49.57.81.73.33.16.81.24,1.3.24s.98-.08,1.3-.24.64-.4.89-.73c.16-.24.32-.57.4-.89.08-.33.08-.82.08-1.3v-6.4h1.37v6.16h0Z"/>
    <path class="cls-4" d="m430.67,110.16h-3.81v9.32h-1.37v-9.32h-3.81v-1.21h8.99v1.21h0Z"/>
    <path class="cls-4" d="m448.83,115.27c0,.73-.09,1.46-.25,2.03s-.4,1.05-.81,1.46c-.41.33-.82.65-1.3.81s-1.05.24-1.7.24-1.21-.08-1.71-.24-.89-.41-1.21-.81c-.4-.4-.65-.89-.81-1.37-.16-.57-.24-1.21-.24-2.03v-6.32h1.37v6.4c0,.57,0,1.05.08,1.38.09.32.25.64.41.89.24.33.48.57.81.73s.81.24,1.3.24.97-.08,1.3-.24c.32-.16.65-.4.89-.73.17-.24.33-.57.41-.89.08-.33.08-.82.08-1.3v-6.4h1.38v6.16h0Z"/>
    <path class="cls-4" d="m469.01,119.48h-1.87l-3.56-4.22h-1.94v4.22h-1.38v-10.62h3c.65,0,1.14.08,1.62.16.41.08.82.24,1.14.41.4.24.64.57.89.89.24.4.32.81.32,1.38,0,.73-.16,1.37-.57,1.94-.4.48-.89.89-1.62,1.13l3.97,4.7Zm-3.32-7.62c0-.32-.09-.57-.16-.81-.09-.24-.25-.4-.57-.57-.25-.17-.41-.25-.73-.33-.24-.08-.64-.08-.97-.08h-1.62v3.97h1.46c.4,0,.81,0,1.14-.08.32-.09.64-.25.81-.41.24-.16.4-.4.49-.64.16-.32.16-.64.16-1.05Z"/>
    <path class="cls-4" d="m486.03,119.48h-6.97v-10.62h6.97v1.21h-5.59v2.92h5.59v1.21h-5.59v3.89h5.59v1.38Z"/>
  </g>
  <rect class="cls-4" x="271.63" y=".24" width=".81" height="71.74"/>
  <rect class="cls-4" y="95.89" width="566.93" height=".81"/>
  <g>
    <polygon class="cls-3" points="240.02 34.77 237.91 33.64 238.88 26.35 235.4 18.07 221.86 14.1 212.86 13.45 204.11 4.05 196.57 0 185.22 4.38 178.25 8.02 178.74 11.1 180.11 27.72 173.23 32.18 166.42 29.91 163.98 22.21 159.53 19.7 157.82 16.29 154.34 9.24 139.26 14.35 131.88 32.34 127.27 35.58 124.59 58.85 129.29 62.01 137.32 52.77 148.34 51.8 170.79 54.23 182.3 55.93 190.17 51.23 193 57.87 201.11 60.15 208.32 65.34 213.67 71.74 219.43 71.74 227.86 68.5 235.8 68.5 241.8 59.58 246.34 55.28 240.02 34.77"/>
    <path class="cls-1" d="m238.23,26.42l-.89,7.05-.08.4.4.24,1.87.97.57,1.87c-1.86,1.37-4.86,2.19-8.02,2.27-3.57.08-7.21-1.3-10.62-2.59-2.11-.81-4.29-1.62-6.48-2.11-5.67-1.3-11.67.81-17.03,2.68-.49.16-.97.33-1.46.49-2.59.89-5.11,1.94-7.54,3-3.73,1.62-7.54,3.32-11.67,4.22-6.32,1.46-12.81,1.37-20.99-.08-1.05-.17-2.11-.4-3.16-.65-2.27-.49-4.62-.97-6.97-1.05-3.97-.16-7.38.17-10.46.89-2.92.65-6.24,1.87-9.16,3.24l.65-5.67c6.08-3.81,14.59-4.62,20.1-4.13,2.43.24,4.86.97,7.3,1.62,2.92.89,5.92,1.78,8.92,1.78h.08c5.67,0,11.03-1.86,15.16-5.19,5.27-4.38,10.21-7.46,15.08-9.4,3.08-1.21,6.16-2.11,9.16-2.43,2.35-.24,4.78.08,7.13.4.4.08.81.08,1.22.16,4.7.57,9.65.73,14.18-2.43.65-.49,1.38-.97,2.03-1.46,1.38-1.05,2.84-2.11,4.38-2.92l3.08.89,3.24,7.94Z"/>
    <path class="cls-3" d="m127.91,35.91l4.38-3,.16-.08.08-.16,7.21-17.75,14.27-4.86,3.24,6.48,1.62,3.41.08.16.17.08,4.29,2.35,2.35,7.54.08.32.32.08,6.81,2.27.33.08.24-.16,6.97-4.54.33-.24v-.41l-1.46-16.62h0l-.41-2.59,6.49-3.4,11.03-4.22,7.13,3.89,8.75,9.32.16.16h.24l8.92.57,9.49,2.84c-1.46.81-2.75,1.78-4.06,2.75-.65.49-1.3.97-2.02,1.46-4.46,3.08-9.32,3-13.86,2.35-.4-.08-.81-.08-1.21-.16-2.35-.33-4.86-.65-7.21-.4-3,.33-6.16,1.21-9.24,2.43-4.86,1.94-9.81,5.1-15.16,9.49-4.05,3.32-9.32,5.1-14.92,5.1-3,0-5.92-.89-8.84-1.7-2.43-.73-4.86-1.46-7.38-1.7-5.51-.49-13.94.24-20.02,3.97l.64-5.1Z"/>
    <path class="cls-3" d="m241.4,59.09h0l-.08.08-5.83,8.59h-7.7l-.08.08-8.35,3.24h-5.27l-5.19-6.16-.08-.08-.08-.08-7.21-5.19-.08-.08h-.08l-7.78-2.19-2.75-6.32-.33-.65-.65.4-7.62,4.54-11.35-1.62h0l-22.45-2.43h-.17l-11.03,1.05h-.24l-.16.16-7.7,8.84-3.89-2.59,1.21-10.62c2.92-1.46,6.32-2.68,9.24-3.32,3.08-.73,6.48-.97,10.37-.89,2.27.08,4.62.57,6.89,1.05,1.05.24,2.11.49,3.16.65,8.27,1.46,14.75,1.46,21.16.08,4.13-.97,8.02-2.59,11.75-4.22,2.43-1.05,4.95-2.11,7.46-3,.48-.16.97-.32,1.46-.48,5.27-1.87,11.19-3.89,16.78-2.68,2.11.49,4.29,1.3,6.4,2.11,3.49,1.3,7.14,2.68,10.78,2.59,1.54,0,5.35-.32,8.11-2.27l5.43,17.51-4.03,3.89Z"/>
  </g>
  <g>
    <path class="cls-3" d="m8.67,23.1h-1.78L1.7,13.29v9.81H.32v-11.02h2.27l4.78,9v-9h1.37v11.02h-.08Z"/>
    <path class="cls-3" d="m20.26,23.1h-1.54l-1.05-3.08h-4.78l-1.05,3.08h-1.46l3.97-10.94h1.94l3.97,10.94Zm-3.08-4.29l-1.94-5.35-1.94,5.35h3.89Z"/>
    <path class="cls-3" d="m28.86,13.38h-3.89v9.65h-1.46v-9.65h-3.97v-1.3h9.32v1.3Z"/>
    <path class="cls-3" d="m34.2,23.1h-4.29v-1.14h1.46v-8.75h-1.46v-1.14h4.29v1.14h-1.46v8.75h1.46v1.13Z"/>
    <path class="cls-3" d="m44.83,13.38c.49.49.81,1.05,1.05,1.78s.32,1.54.32,2.43-.16,1.7-.4,2.43c-.24.73-.57,1.3-1.05,1.78-.48.49-.97.89-1.62,1.14-.64.24-1.29.4-2.11.4s-1.46-.16-2.11-.4c-.65-.24-1.14-.65-1.62-1.14-.4-.49-.81-1.05-1.05-1.78-.24-.73-.32-1.54-.32-2.43s.08-1.7.32-2.43c.24-.73.57-1.3,1.05-1.78.4-.49.97-.81,1.62-1.14.65-.24,1.38-.4,2.11-.4.81,0,1.46.16,2.11.4.74.24,1.3.65,1.71,1.14Zm-.08,4.21c0-1.46-.32-2.51-.97-3.32-.65-.81-1.54-1.13-2.59-1.13-1.14,0-2.03.4-2.59,1.14-.65.81-.97,1.86-.97,3.32s.33,2.51.97,3.32c.65.73,1.54,1.14,2.59,1.14s1.94-.4,2.59-1.14c.65-.81.97-1.86.97-3.32Z"/>
    <path class="cls-3" d="m56.9,23.1h-1.78l-5.19-9.81v9.81h-1.37v-11.02h2.27l4.78,9v-9h1.38v11.02h-.08Z"/>
    <path class="cls-3" d="m68.5,23.1h-1.54l-1.05-3.08h-4.78l-1.05,3.08h-1.46l3.97-10.94h1.94l3.97,10.94Zm-3.08-4.29l-1.94-5.35-1.94,5.35h3.89Z"/>
    <path class="cls-3" d="m77.09,23.1h-6.97v-11.02h1.46v9.65h5.51v1.37h0Z"/>
    <path class="cls-3" d="m9.56,35.74c0,.97-.24,1.87-.65,2.68-.4.81-.97,1.46-1.7,1.87-.48.33-1.05.57-1.7.65-.65.16-1.46.24-2.43.24H.32v-10.94h2.76c1.05,0,1.94.08,2.59.24.65.17,1.14.4,1.62.65.73.49,1.3,1.05,1.78,1.86.24.73.48,1.7.48,2.75Zm-1.54-.08c0-.89-.16-1.62-.49-2.19s-.73-1.05-1.37-1.38c-.4-.24-.89-.4-1.38-.48-.49-.08-1.05-.17-1.78-.17h-1.3v8.51h1.38c.73,0,1.3-.08,1.86-.16.49-.08.97-.33,1.46-.57.57-.33.97-.81,1.22-1.38.24-.57.4-1.3.4-2.19Z"/>
    <path class="cls-3" d="m19.13,41.18h-7.21v-10.94h7.21v1.3h-5.75v3h5.76v1.3h-5.76v4.05h5.76v1.3h0Z"/>
    <path class="cls-3" d="m30.15,30.24l-3.97,10.94h-1.94l-3.97-10.94h1.54l3.4,9.65,3.41-9.65s1.54,0,1.54,0Z"/>
    <path class="cls-3" d="m38.99,41.18h-7.21v-10.94h7.21v1.3h-5.76v3h5.76v1.3h-5.76v4.05h5.76v1.3Z"/>
    <path class="cls-3" d="m48.31,41.18h-6.97v-10.94h1.46v9.65h5.51s0,1.3,0,1.3Z"/>
    <path class="cls-3" d="m57.8,31.45c.49.49.81,1.05,1.05,1.78.24.73.33,1.54.33,2.43s-.17,1.7-.4,2.43c-.24.73-.57,1.3-1.05,1.78s-.97.89-1.62,1.14-1.3.4-2.11.4-1.46-.16-2.11-.4c-.65-.24-1.14-.65-1.62-1.14-.4-.49-.81-1.05-1.05-1.78-.24-.73-.33-1.54-.33-2.43s.08-1.7.33-2.43.57-1.3,1.05-1.87c.4-.49.97-.81,1.62-1.14.65-.24,1.38-.4,2.11-.4.81,0,1.46.16,2.11.4.73.41,1.21.81,1.7,1.22Zm-.16,4.29c0-1.46-.33-2.51-.97-3.32-.65-.81-1.54-1.14-2.59-1.14-1.14,0-2.03.4-2.59,1.14-.65.81-.97,1.87-.97,3.32s.33,2.51.97,3.32c.65.73,1.54,1.14,2.59,1.14s1.94-.4,2.59-1.14c.65-.81.97-1.94.97-3.32Z"/>
    <path class="cls-3" d="m68.66,33.56c0,.49-.08.97-.24,1.38s-.4.81-.73,1.05c-.4.4-.81.65-1.38.89-.49.16-1.14.32-1.94.32h-1.46v4.06h-1.46v-11.02h3c.65,0,1.21.08,1.7.16s.89.24,1.21.49c.4.24.73.65.97,1.05.24.4.32.97.32,1.62Zm-1.54,0c0-.4-.08-.73-.17-.97-.16-.24-.32-.49-.57-.65s-.49-.24-.81-.32c-.33-.08-.65-.08-1.14-.08h-1.46v4.38h1.21c.57,0,1.05-.08,1.46-.17s.65-.24.89-.49c.24-.24.4-.48.49-.73.08-.32.08-.64.08-.97Z"/>
    <path class="cls-3" d="m80.33,41.18h-1.46v-9.4l-3.08,6.4h-.89l-3-6.4v9.49h-1.3v-11.03h2.03l2.92,6.08,2.84-6.08h2.03v10.94h-.09Z"/>
    <path class="cls-3" d="m90.54,41.18h-7.21v-10.94h7.21v1.3h-5.76v3h5.76v1.3h-5.76v4.05h5.76s0,1.3,0,1.3Z"/>
    <path class="cls-3" d="m101.24,41.18h-1.78l-5.19-9.81v9.81h-1.37v-10.94h2.27l4.78,9v-9h1.37v10.94h-.08Z"/>
    <path class="cls-3" d="m111.95,31.53h-3.89v9.65h-1.46v-9.65h-3.89v-1.3h9.32v1.3s-.08,0-.08,0Z"/>
    <path class="cls-3" d="m7.46,51.63c0,.49-.08.97-.24,1.38s-.4.81-.73,1.05c-.4.4-.81.65-1.38.81-.49.16-1.14.32-1.94.32h-1.46v4.06H.24v-10.94h3c.65,0,1.21.08,1.7.16.49.08.89.24,1.21.49.4.24.73.65.97,1.05.24.48.33.97.33,1.62Zm-1.54.08c0-.4-.08-.73-.16-.97-.17-.24-.33-.49-.57-.65-.24-.16-.49-.24-.81-.32s-.65-.08-1.14-.08h-1.54v4.38h1.21c.57,0,1.05-.08,1.46-.16.4-.08.65-.24.89-.49.24-.24.4-.49.49-.73.17-.4.17-.65.17-.97Z"/>
    <path class="cls-3" d="m16.29,59.34h-6.97v-11.03h1.46v9.65h5.51v1.38h0Z"/>
    <path class="cls-3" d="m26.42,59.34h-1.54l-1.05-3.08h-4.78l-1.05,3.08h-1.46l3.97-10.94h1.94l3.97,10.94Zm-3.08-4.3l-1.94-5.43-1.94,5.43h3.89Z"/>
    <path class="cls-3" d="m36.48,59.34h-1.78l-5.19-9.81v9.81h-1.38v-11.03h2.27l4.78,9v-9h1.38v11.03s-.08,0-.08,0Z"/>
    <path class="cls-3" d="m51.88,59.34h-7.46v-1.54c.49-.4,1.05-.89,1.54-1.3s.97-.89,1.46-1.3c.97-.89,1.62-1.62,1.94-2.19.33-.57.49-1.14.49-1.78,0-.57-.16-1.05-.57-1.38s-.89-.49-1.54-.49c-.49,0-.89.08-1.46.24-.49.16-1.05.4-1.54.73h-.08v-1.54c.33-.16.81-.33,1.38-.49s1.14-.24,1.7-.24c1.14,0,2.03.24,2.68.81s.97,1.3.97,2.19c0,.4-.08.81-.16,1.14-.08.33-.24.73-.49,1.05-.17.33-.4.57-.65.89-.24.33-.57.65-.97.97-.49.49-1.05,1.05-1.62,1.54s-1.05.97-1.54,1.38h5.92v1.3h0Z"/>
    <path class="cls-3" d="m61.44,53.82c0,1.94-.33,3.4-.89,4.38-.65.89-1.54,1.37-2.84,1.37s-2.27-.48-2.92-1.37c-.57-.97-.89-2.35-.89-4.29s.32-3.41.89-4.29c.65-.89,1.54-1.38,2.84-1.38s2.27.49,2.92,1.46c.57.81.9,2.19.9,4.13Zm-1.94,3.32c.17-.4.33-.89.33-1.38.08-.57.08-1.21.08-1.94s0-1.38-.08-1.94-.16-1.05-.33-1.38c-.16-.4-.4-.65-.73-.89-.33-.17-.65-.33-1.14-.33s-.81.08-1.14.33c-.33.16-.57.48-.73.89-.16.33-.24.81-.32,1.46-.08.57-.08,1.21-.08,1.94s0,1.37.08,1.94c.08.49.16.97.32,1.38.17.4.4.65.65.89.33.16.73.32,1.22.32s.81-.08,1.14-.32c.32-.24.57-.57.73-.97Z"/>
    <path class="cls-3" d="m71.09,59.34h-7.46v-1.54c.49-.4,1.05-.89,1.54-1.3s.97-.89,1.46-1.3c.97-.89,1.62-1.62,1.94-2.19.32-.57.48-1.14.48-1.78,0-.57-.16-1.05-.57-1.38-.4-.33-.89-.49-1.54-.49-.48,0-.89.08-1.46.24-.49.16-1.05.4-1.54.73h-.08v-1.54c.32-.16.81-.33,1.37-.49s1.14-.24,1.7-.24c1.14,0,2.03.24,2.68.81.65.57.97,1.3.97,2.19,0,.4-.08.81-.16,1.14-.08.33-.24.73-.49,1.05-.16.33-.4.57-.65.89-.24.33-.57.65-.97.97-.57.49-1.05,1.05-1.62,1.54s-1.05.97-1.54,1.38h5.92v1.3h0Z"/>
    <path class="cls-3" d="m80.65,53.82c0,1.94-.32,3.4-.89,4.38-.65.89-1.54,1.37-2.84,1.37s-2.27-.48-2.92-1.37c-.57-.97-.89-2.35-.89-4.29s.33-3.41.89-4.29c.65-.89,1.54-1.38,2.84-1.38s2.27.49,2.92,1.46c.57.81.89,2.19.89,4.13Zm-1.94,3.32c.16-.4.32-.89.32-1.38.08-.57.08-1.21.08-1.94s0-1.38-.08-1.94-.16-1.05-.32-1.38c-.17-.4-.4-.65-.73-.89-.32-.17-.65-.33-1.14-.33s-.81.08-1.14.33c-.33.16-.57.48-.73.89-.17.33-.24.81-.33,1.46-.08.57-.08,1.21-.08,1.94s0,1.37.08,1.94c.08.49.16.97.33,1.38.16.4.4.65.65.89.32.16.73.32,1.21.32s.81-.08,1.14-.32c.33-.24.57-.57.73-.97Z"/>
  </g>
</svg>