<svg id="Слой_1" data-name="Слой 1" xmlns="http://www.w3.org/2000/svg" xmlns:xlink="http://www.w3.org/1999/xlink" viewBox="0 0 869.35 304.11"><defs><style>.cls-1{fill:none;}.cls-2{fill:#46ac3e;}.cls-3{clip-path:url(#clip-path);}</style><clipPath id="clip-path" transform="translate(-14.43 -15.74)"><rect class="cls-1" x="174.26" y="155.83" width="634.28" height="198.83"/></clipPath></defs><path class="cls-2" d="M16.1,84.16C26.19,43.61,55.79,15.74,90.43,15.74c40.35,0,75.32,38,75.32,91.23,0,35.9-14.46,62.09-30.27,84.89l-50.1,73.07h82.05v50.69h-153V281.83L97.15,164c18.16-25.77,23.21-42.66,23.21-57.87,0-20.69-12.78-39.7-30.61-39.7C74,66.42,62.51,79.93,57.8,99.79Z" transform="translate(-14.43 -15.74)"/><path class="cls-2" d="M854.19,245.93c16.48,0,29.59,16.47,29.59,37.17s-13.11,36.74-29.59,36.74-29.25-16-29.25-36.74S837.71,245.93,854.19,245.93Z" transform="translate(-14.43 -15.74)"/><g class="cls-3"><path class="cls-2" d="M283.47,15.74c60.19,0,82.38,68,82.38,152s-22.19,152-82.38,152-82.39-68-82.39-152S223.28,15.74,283.47,15.74Zm0,50.68c-27.24,0-37,45.61-37,101.37s9.76,101.37,37,101.37,37-45.62,37-101.37S310.71,66.42,283.47,66.42Z" transform="translate(-14.43 -15.74)"/><path class="cls-2" d="M485.26,15.74c60.19,0,82.38,68,82.38,152s-22.19,152-82.38,152-82.39-68-82.39-152S425.07,15.74,485.26,15.74Zm0,50.68c-27.24,0-37,45.61-37,101.37s9.76,101.37,37,101.37,37-45.62,37-101.37S512.5,66.42,485.26,66.42Z" transform="translate(-14.43 -15.74)"/><path class="cls-2" d="M687,15.74c60.2,0,82.39,68,82.39,152s-22.19,152-82.39,152-82.39-68-82.39-152S626.85,15.74,687,15.74Zm0,50.68c-27.23,0-37,45.61-37,101.37s9.76,101.37,37,101.37,37-45.62,37-101.37S714.28,66.42,687,66.42Z" transform="translate(-14.43 -15.74)"/></g><path class="cls-2" d="M251.07,108.34a14.1,14.1,0,0,0,24.41,2.58c1.7-2.42,2.7-5.6,2.7-12V23.73h14.19V97.9c0,8.33-1.14,13.62-3.41,18a28.24,28.24,0,0,1-24.69,15.29c-11.49,0-21.57-6.36-25.83-17.1Z" transform="translate(-14.43 -15.74)"/><path class="cls-2" d="M364.46,123.18a29.47,29.47,0,0,1-20.58,8,32.65,32.65,0,0,1-16.75-4.69c-10.07-6.36-17-18.17-17-32.39s7.09-26.19,17.17-32.55a31.33,31.33,0,0,1,37.18,3.48V58.54h13.05v71.15H364.46ZM364,80.8a23.58,23.58,0,0,0-19-10.15c-12.91,0-21.42,11-21.42,23.47,0,12.71,9.22,23.46,22.13,23.46,6.82,0,13.77-3.63,18.31-10.14Z" transform="translate(-14.43 -15.74)"/><path class="cls-2" d="M406.32,119.24c-4.12-5.45-6.1-12.41-6.1-24.37V58.54H413.7v38.6c0,7.27,1.42,11.2,3.83,14.23a16.58,16.58,0,0,0,12.91,6.21c8.23,0,14.9-5.3,18.74-10.14V58.54h13.48v71.15H449.6v-6.51a29.11,29.11,0,0,1-19.58,8A29.49,29.49,0,0,1,406.32,119.24Z" transform="translate(-14.43 -15.74)"/><path class="cls-2" d="M589.66,129.69h-18L538.58,94.87v34.82H525.1V22.22h13.48V85.79l27.81-27.25h19L552.06,90.63Z" transform="translate(-14.43 -15.74)"/><path class="cls-2" d="M627.69,57c19.73,0,34.49,15.89,34.49,37.09s-14.76,37.08-34.49,37.08-34.48-15.89-34.48-37.08S608,57,627.69,57Zm0,60.55c12.35,0,21-10.45,21-23.46s-8.66-23.47-21-23.47-21,10.45-21,23.47S615.35,117.58,627.69,117.58Z" transform="translate(-14.43 -15.74)"/><path class="cls-2" d="M694.11,166H680.62V58.54h13.06v6.51a31.33,31.33,0,0,1,37.18-3.48C740.93,67.93,748,79.89,748,94.12s-6.95,26-17,32.39a32.58,32.58,0,0,1-16.74,4.69,28.83,28.83,0,0,1-20.15-7.72Zm0-58.58c4.54,6.51,11.49,10.14,18.3,10.14,12.92,0,22.14-10.75,22.14-23.46,0-12.42-8.51-23.47-21.43-23.47a23.54,23.54,0,0,0-19,10.15Z" transform="translate(-14.43 -15.74)"/><path class="cls-2" d="M767.05,110.77c6.24,5.14,13.05,7.87,19.72,7.87,5.82,0,11.64-3.33,11.64-8.93,0-8.18-11.07-8.63-20.86-12.11-8.09-2.88-15.33-8.33-15.33-18.32C762.22,64,775,57,786.91,57c9.79,0,16.89,3.33,22.14,7.87L802.1,75.2c-4.12-3.33-8.94-5.61-14.34-5.61-6.52,0-12.06,3.33-12.06,8.94,0,4.84,5.25,6.5,11.92,8.32,10.5,2.88,24.27,7.87,24.27,22.55,0,13.48-11.78,21.8-24.84,21.8a40,40,0,0,1-27-9.84Zm8.23-87L787.34,38,799.4,23.73h9.22L795.14,46.44H779.53L766.05,23.73Z" transform="translate(-14.43 -15.74)"/></svg>