<svg id="Слой_1" data-name="Слой 1" xmlns="http://www.w3.org/2000/svg" viewBox="0 0 955.88 328.84">
    <defs>
        <style>
            .cls-1{fill:#fff;}.cls-2{fill:none;stroke:#fff;stroke-miterlimit:10;stroke-width:1.43px;}.cls-3{fill:#fff;}.cls-4{fill:transparent;}
        </style>
    </defs>
    <path fill="#fff" class="cls-1"
          d="M321.37,206.81,346.13,161l24.53,45.8Zm12.15-63.06L277.18,247.19h22.2L311.29,225h69.47l11.93,22.19H414.9L358.58,143.75Z"
          transform="translate(-4.83 -4.09)"/>
    <path fill="#fff" class="cls-2"
          d="M321.37,206.81,346.13,161l24.53,45.8Zm12.15-63.06L277.18,247.19h22.2L311.29,225h69.47l11.93,22.19H414.9L358.58,143.75Z"
          transform="translate(-4.83 -4.09)"/>
    <rect fill="#fff" class="cls-1" x="429.96" y="139.66" width="20.16" height="103.44"/>
    <rect fill="#fff" class="cls-2" x="429.96" y="139.66" width="20.16" height="103.44"/>
    <polygon fill="#fff" class="cls-1"
             points="557.88 198.17 515.71 139.66 485.43 139.66 485.43 243.09 505.59 243.09 505.59 158.01 506.11 157.32 557.88 228.45 609.84 158.01 610.34 243.09 630.5 243.09 630.5 139.66 600.14 139.66 557.88 198.17"/>
    <polygon fill="#fff" class="cls-2"
             points="557.88 198.17 515.71 139.66 485.43 139.66 485.43 243.09 505.59 243.09 505.59 158.01 506.11 157.32 557.88 228.45 609.84 158.01 610.34 243.09 630.5 243.09 630.5 139.66 600.14 139.66 557.88 198.17"/>
    <path fill="#fff" class="cls-1"
          d="M724.15,161l24.54,45.79H699.41Zm-34.84,64h69.46l11.93,22.19h22.21L736.6,143.75H711.53L655.22,247.18h22.19Z"
          transform="translate(-4.83 -4.09)"/>
    <path fill="#fff" class="cls-2"
          d="M724.15,161l24.54,45.79H699.41Zm-34.84,64h69.46l11.93,22.19h22.21L736.6,143.75H711.53L655.22,247.18h22.19Z"
          transform="translate(-4.83 -4.09)"/>
    <path fill="#fff" class="cls-1"
          d="M868.46,204.2c2.28-3.2,4.6-6.54,6.84-9.9,18.71-27.81,23.9-42.05,41.11-74.7-2.23-.28-3.43,0-6.07-.25-2.3,3.56-9.43,17.16-19.71,31.82-4.62,6.59-24.18,34-32.19,42.38l-.36-.4c-26.59-28.2-38.68-49.4-38.68-49.4H800c13.88,23.27,31,45.66,46.4,64.11-56,65.11-148.23,115.73-176.24,122.59-4.46,1.1-2.55,2.24,2.6,1.55,44.75-5.93,140.19-63.27,183.53-112.54,17.85,20.46,31.47,33.74,31.47,33.74l34.51-.17c-28.18-22.56-41.25-35.54-53.81-48.83"
          transform="translate(-4.83 -4.09)"/>
    <path fill="#fff" class="cls-2"
          d="M868.46,204.2c2.28-3.2,4.6-6.54,6.84-9.9,18.71-27.81,23.9-42.05,41.11-74.7-2.23-.28-3.43,0-6.07-.25-2.3,3.56-9.43,17.16-19.71,31.82-4.62,6.59-24.18,34-32.19,42.38l-.36-.4c-26.59-28.2-38.68-49.4-38.68-49.4H800c13.88,23.27,31,45.66,46.4,64.11-56,65.11-148.23,115.73-176.24,122.59-4.46,1.1-2.55,2.24,2.6,1.55,44.75-5.93,140.19-63.27,183.53-112.54,17.85,20.46,31.47,33.74,31.47,33.74l34.51-.17C894.09,230.47,881,217.49,868.46,204.2Z"
          transform="translate(-4.83 -4.09)"/>
    <path fill="#fff" class="cls-1"
          d="M956,31.19a203,203,0,0,0-7.25-20.7C948.08,9,947,5.8,945.41,5c-8.81,14.29-72,64.17-31.9,97.69,9.81-10.18,26.44-49.92,27.83-56.95,5.44,5.08-10.46,46.91-21.8,63.73,19.32-7.34,31.47-27.53,34.61-34a55.07,55.07,0,0,0,5.72-20.42c.7-9.81-1.53-16.11-3.89-23.9"
          transform="translate(-4.83 -4.09)"/>
    <path fill="#fff" class="cls-2"
          d="M956,31.19a203,203,0,0,0-7.25-20.7C948.08,9,947,5.8,945.41,5c-8.81,14.29-72,64.17-31.9,97.69,9.81-10.18,26.44-49.92,27.83-56.95,5.44,5.08-10.46,46.91-21.8,63.73,19.32-7.34,31.47-27.53,34.61-34a55.07,55.07,0,0,0,5.72-20.42C960.57,45.28,958.34,39,956,31.19Z"
          transform="translate(-4.83 -4.09)"/>
    <path fill="#fff" class="cls-3"
          d="M321.37,206.79,346.13,161l24.53,45.78Zm12.15-63L277.18,247.18h22.2L311.29,225h69.47l11.93,22.19H414.9L358.58,143.74Z"
          transform="translate(-4.83 -4.09)"/>
    <rect fill="#fff" class="cls-3" x="429.96" y="139.65" width="20.16" height="103.44"/>
    <polygon fill="#fff" class="cls-3"
             points="557.88 198.16 515.71 139.65 485.43 139.65 485.43 243.1 505.59 243.1 505.59 158.01 506.11 157.31 557.88 228.45 609.84 158.01 610.34 243.1 630.5 243.1 630.5 139.65 600.14 139.65 557.88 198.16"/>
    <path fill="#fff" class="cls-3"
          d="M724.15,161l24.54,45.79H699.41Zm-34.84,64h69.46l11.93,22.19h22.21L736.6,143.74H711.53L655.22,247.18h22.19Z"
          transform="translate(-4.83 -4.09)"/>
    <path fill="#fff" class="cls-3"
          d="M868.46,204.19c2.28-3.19,4.6-6.52,6.84-9.9,18.71-27.8,23.9-42,41.11-74.68-2.23-.3-3.43,0-6.07-.28-2.3,3.57-9.43,17.17-19.71,31.83-4.62,6.59-24.18,34-32.19,42.39-.11-.15-.22-.26-.36-.42-26.59-28.19-38.68-49.39-38.68-49.39H800c13.88,23.28,31,45.64,46.4,64.13-56,65.09-148.23,115.71-176.24,122.59-4.46,1.09-2.55,2.22,2.6,1.54,44.75-5.93,140.19-63.29,183.53-112.55,17.85,20.46,31.47,33.75,31.47,33.75l34.51-.2c-28.18-22.53-41.25-35.52-53.81-48.81"
          transform="translate(-4.83 -4.09)"/>
    <path fill="#fff" class="cls-3"
          d="M956,31.18a203.68,203.68,0,0,0-7.25-20.69C948.08,9,947,5.8,945.41,5c-8.81,14.3-72,64.17-31.9,97.69,9.81-10.18,26.44-49.92,27.83-56.95,5.44,5.1-10.46,46.92-21.8,63.75,19.32-7.34,31.47-27.54,34.61-34a55.12,55.12,0,0,0,5.72-20.44c.7-9.81-1.53-16.09-3.89-23.89"
          transform="translate(-4.83 -4.09)"/>
    <rect fill="#fff" class="cls-4" y="87.39" width="207.98" height="207.98"/>
    <path fill="#fff" class="cls-1"
          d="M180,161.36v50.25q0,12.4-7.54,19.69t-20.56,7.28q-12.78,0-20.21-7.28t-7.43-19.69V161.36H113.78v51.1q0,15.84,10.34,25.48t27.76,9.63q17.66,0,28.1-9.53t10.46-25.58v-51.1Z"
          transform="translate(-4.83 -4.09)"/>
    <path fill="#fff" class="cls-1"
          d="M151.88,248.27c-11.74,0-21.24-3.31-28.24-9.82s-10.56-15.28-10.56-26v-51.8h11.85v51c0,8,2.43,14.5,7.23,19.19s11.43,7.08,19.72,7.08c8.44,0,15.2-2.38,20.07-7.08s7.34-11.15,7.34-19.19v-51h11.85v51.8c0,10.86-3.6,19.64-10.69,26.1S163.77,248.27,151.88,248.27Zm-37.4-86.21v50.4c0,10.31,3.4,18.71,10.12,25s15.9,9.44,27.28,9.44c11.53,0,20.83-3.14,27.63-9.34s10.23-14.62,10.23-25.07v-50.4h-9.06v49.55c0,8.43-2.61,15.23-7.76,20.19s-12.22,7.48-21,7.48c-8.66,0-15.63-2.52-20.7-7.48s-7.64-11.76-7.64-20.19V162.06Z"
          transform="translate(-4.83 -4.09)"/>
    <path fill="#fff" class="cls-1" d="M37.5,271.21v2.87H30.89v7.11H39.8v2.87H28V262.89h11.5v2.87H30.89v5.45Z"
          transform="translate(-4.83 -4.09)"/>
    <path fill="#fff" class="cls-1"
          d="M41.38,284.06l7.17-11.58-6-9.59h3.53l4.35,7.05,4.37-7.05h3.54l-6,9.59,7.19,11.58h-3.4l-5.66-9-5.64,9Z"
          transform="translate(-4.83 -4.09)"/>
    <path fill="#fff" class="cls-1"
          d="M65.37,274.69v9.37H62.5V262.89h7.62a5.86,5.86,0,0,1,4.2,1.39,6.12,6.12,0,0,1,0,9,5.86,5.86,0,0,1-4.2,1.4ZM70,271.81a3.22,3.22,0,0,0,2.64-.94,3.09,3.09,0,0,0,0-4.17,3.22,3.22,0,0,0-2.64-.94H65.37v6.05Z"
          transform="translate(-4.83 -4.09)"/>
    <path fill="#fff" class="cls-1" d="M89.25,271.21v2.87H82.63v7.11h8.92v2.87H79.76V262.89h11.5v2.87H82.63v5.45Z"
          transform="translate(-4.83 -4.09)"/>
    <path fill="#fff" class="cls-1"
          d="M98.16,274.08v10H95.29V262.89h7a5.56,5.56,0,0,1,3.91,1.24,5.78,5.78,0,0,1,0,8.71,4.78,4.78,0,0,1-2.36,1.12l7.22,10.1h-3.48l-7.16-10Zm4-2.87a3,3,0,0,0,2.42-.79,2.87,2.87,0,0,0,0-3.87,3,3,0,0,0-2.42-.79h-4v5.45Z"
          transform="translate(-4.83 -4.09)"/>
    <path fill="#fff" class="cls-1" d="M113.7,262.89h2.87v21.17H113.7Z" transform="translate(-4.83 -4.09)"/>
    <path fill="#fff" class="cls-1" d="M131.24,271.21v2.87h-6.61v7.11h8.91v2.87H121.75V262.89h11.51v2.87h-8.63v5.45Z"
          transform="translate(-4.83 -4.09)"/>
    <path fill="#fff" class="cls-1" d="M140.16,268.51v15.55h-2.88V262.89h2l12.08,15.55V262.89h2.87v21.17h-2Z"
          transform="translate(-4.83 -4.09)"/>
    <path fill="#fff" class="cls-1"
          d="M168,262.58a9.81,9.81,0,0,1,7.37,3.27l-1.93,2a7.47,7.47,0,0,0-5.44-2.39c-4.11,0-7.3,3.45-7.3,8,0,4.78,3.28,8,7.56,8a7.41,7.41,0,0,0,5.78-3l2,1.93a10,10,0,0,1-7.82,3.94c-6,0-10.44-4.63-10.44-10.89S162.22,262.58,168,262.58Z"
          transform="translate(-4.83 -4.09)"/>
    <path fill="#fff" class="cls-1" d="M188.77,271.21v2.87h-6.61v7.11h8.91v2.87H179.28V262.89h11.5v2.87h-8.62v5.45Z"
          transform="translate(-4.83 -4.09)"/>
    <path fill="#fff" class="cls-1" d="M107.06,139.62V153h-4.21V139.62l-7.47-16.14h4.79l4.8,10.36,4.77-10.36h4.79Z"
          transform="translate(-4.83 -4.09)"/>
    <path fill="#fff" class="cls-1" d="M121.39,128.53v6.11h6.69v5.06h-6.69v8.22h9.19V153h-13.4v-29.5h13.08v5Z"
          transform="translate(-4.83 -4.09)"/>
    <path fill="#fff" class="cls-1" d="M132.76,153l9.34-29.5h3l9.35,29.5H150l-2-6.53H139.2l-2,6.53Zm8-11.59h5.55l-2.78-8.73Z"
          transform="translate(-4.83 -4.09)"/>
    <path fill="#fff" class="cls-1"
          d="M161.1,139.91V153h-4.2v-29.5h7.94a5.68,5.68,0,0,1,4.77,2.19,10.37,10.37,0,0,1,0,12,5.63,5.63,0,0,1-2.18,1.73L175.59,153h-5.21l-7.75-13.07Zm3.49-5a2.2,2.2,0,0,0,2.12-.89,4.18,4.18,0,0,0,.62-2.23,4.23,4.23,0,0,0-.62-2.28,2.21,2.21,0,0,0-2.12-.93H161.1v6.33Z"
          transform="translate(-4.83 -4.09)"/>
    <path fill="#fff" class="cls-1"
          d="M178.8,145.1a6.61,6.61,0,0,0,5.14,3.24c1.86,0,3.17-1.56,3.17-3.71,0-3.79-4.05-4.25-7-6.57a8,8,0,0,1-3.08-6.7c0-5.27,3.58-8.31,7.2-8.31a8.46,8.46,0,0,1,6.32,2.79l-2.18,4.21a5.09,5.09,0,0,0-3.77-1.94,3.12,3.12,0,0,0-3.36,3.2c0,4.77,10.06,3.29,10.06,13.24,0,5.23-3.46,8.85-7.38,8.85-2.93,0-5.64-1.64-7.89-4.42Z"
          transform="translate(-4.83 -4.09)"/>
    <path fill="#fff" class="cls-1"
          d="M93.81,238.64l1.76,8.09L28.67,246v-8l28.61-32q16.35-18.3,22.48-29.54A48.31,48.31,0,0,0,85.89,153v-1.9q0-11.62-6.46-17.92t-18.28-6.29q-11.83,0-18.29,6.29t-6.45,17.54l-9.68,6.61v-6.61q0-14.86,9.14-23.35t25.28-8.48q16.35,0,25.38,8.38t9,23.45v1.9a55.24,55.24,0,0,1-6.56,26q-6.57,12.48-24.2,31.92L40.07,238Z"
          transform="translate(-4.83 -4.09)"/>
    <path fill="#fff" class="cls-1"
          d="M96.87,247.79l-69.25-.74v-9.44L56.5,205.29c10.8-12.09,18.31-22,22.34-29.35a47.51,47.51,0,0,0,6-22.94v-1.9c0-7.42-2.06-13.2-6.14-17.17s-10-6-17.55-6-13.47,2-17.55,6-6.14,9.62-6.14,16.79v.55l-11.78,8v-8.59c0-10.17,3.19-18.29,9.48-24.12s15-8.76,26-8.76,19.9,2.92,26.1,8.67,9.37,13.91,9.37,24.21v1.9a56.58,56.58,0,0,1-6.68,26.51c-4.4,8.36-12.59,19.17-24.36,32.14L42.4,237l52.26.62ZM29.72,245l64.55.7-1.3-6L37.74,239,64,209.86c11.65-12.84,19.74-23.51,24-31.71a54.46,54.46,0,0,0,6.44-25.53v-1.9c0-9.69-2.93-17.32-8.7-22.68s-14.1-8.1-24.67-8.1-18.7,2.76-24.56,8.2-8.81,13-8.81,22.58v4.62l7.59-5.18c.1-7.49,2.38-13.45,6.76-17.73s10.89-6.58,19-6.58,14.53,2.21,19,6.58,6.77,10.66,6.77,18.67V153A49.62,49.62,0,0,1,80.68,177c-4.1,7.52-11.71,17.53-22.62,29.74L29.72,238.41Z"
          transform="translate(-4.83 -4.09)"/>
</svg>