<?xml version="1.0" encoding="UTF-8"?>
<!DOCTYPE svg PUBLIC "-//W3C//DTD SVG 1.1//EN" "http://www.w3.org/Graphics/SVG/1.1/DTD/svg11.dtd">
<!-- Creator: CorelDRAW X5 -->
<svg xmlns="http://www.w3.org/2000/svg" xml:space="preserve" width="337.39mm" height="104.716mm" style="shape-rendering:geometricPrecision; text-rendering:geometricPrecision; image-rendering:optimizeQuality; fill-rule:evenodd; clip-rule:evenodd"
viewBox="0 0 33739 10472"
 xmlns:xlink="http://www.w3.org/1999/xlink">
 <defs>
  <style type="text/css">
   <![CDATA[
    .fil1 {fill:black}
    .fil0 {fill:#54AF3A}
   ]]>
  </style>
 </defs>
 <g id="Layer_x0020_1">
  <metadata id="CorelCorpID_0Corel-Layer"/>
  <g id="_722284304">
   <path class="fil0" d="M24373 6646l293 0 0 3825 -293 0 0 -3093 -732 0 0 -293 732 0 0 -439zm5617 1100c-296,0 -540,84 -713,243l0 -243 -293 0 0 1006 0 1719 293 0 0 -1697c0,-538 293,-735 713,-735 421,0 713,197 713,735l0 1697 293 0 0 -1719c0,-644 -391,-1006 -1006,-1006zm-3365 1753c18,456 261,680 712,680 452,0 694,-226 712,-680l0 -780c-20,-498 -306,-680 -712,-680 -406,0 -692,182 -712,680l0 780zm712 -1753c615,0 988,357 1006,974l0 778c-12,613 -392,972 -1001,973 -610,0 -994,-349 -1010,-967l0 -794c17,-617 404,-964 1005,-964zm-7043 -1100l293 0 0 3825 -293 0 0 -3825zm-4315 1100c-1305,3 -1323,1419 -52,1460 1191,0 1048,982 159,989l-1099 0 0 276 1099 0c1321,-26 1391,-1528 -102,-1528 -926,7 -926,-927 0,-934l790 0 0 -263 -790 0 -5 0zm9418 -1100l293 0 0 732 -293 0 0 -732zm7230 1100c-1305,3 -1323,1418 -52,1459l0 1c1191,0 1048,982 159,989l-1099 0 0 276 1099 0 50 0 0 -1c1234,-39 1357,-1527 -152,-1527 -926,7 -926,-927 0,-934l790 0 0 -263 -790 0 -5 0zm-14711 1753c18,456 261,680 712,680 452,0 694,-226 712,-680l0 -780c-20,-498 -306,-680 -712,-680 -406,0 -692,182 -712,680l0 780zm712 -1753c615,0 988,357 1006,974l0 778c-12,613 -392,972 -1001,973 -610,0 -994,-349 -1010,-967l0 -794c17,-617 404,-964 1005,-964zm6769 -2l293 0 0 2727 -293 0 0 -2727zm-2980 2727c-615,0 -1006,-362 -1006,-1006l0 -1719 293 0 0 1697c0,538 293,735 713,735 421,0 713,-197 713,-735l0 -1697 293 0 0 1719c0,644 -391,1006 -1006,1006z"/>
   <path class="fil0" d="M3577 5626l1301 0 0 520 -1301 0 0 -520zm18357 -4325l-520 0 0 -1301 520 0 0 1301zm11805 4845l-520 0 0 -1301 520 0 0 1301zm-20610 -520l0 520 -1301 0 0 -520 1301 0zm-11341 4846c1093,0 1789,-645 1789,-1789l0 -1 -520 0 0 0c0,956 -520,1269 -1268,1269 -722,0 -1232,-324 -1266,-1211l0 -1384c34,-887 544,-1211 1266,-1211l1268 0 0 -520 -1268 0c-1074,0 -1765,623 -1788,1731l0 1384c23,1108 714,1731 1788,1731z"/>
   <path class="fil1" d="M4877 5626c705,-10 1200,-337 1234,-1210l0 -1386c-35,-886 -544,-1210 -1266,-1210 -748,0 -1268,351 -1268,1307l0 2498 0 520 0 2536 -520 0 0 -5593c0,-1144 696,-1789 1789,-1789 1069,0 1758,617 1787,1714l1 1400c-31,1080 -674,1718 -1756,1731l0 -520zm27073 -4325c-696,0 -1232,262 -1528,748 -297,-486 -832,-748 -1528,-748 -1093,0 -1789,644 -1789,1788l0 3057 521 0 0 -3018c0,-956 520,-1307 1268,-1307 748,0 1268,351 1268,1307l0 3018 522 0 -1 -1412 0 -1605c0,-956 520,-1307 1268,-1307 748,0 1268,351 1268,1307l0 1717 520 0 0 -1756c0,-1145 -696,-1788 -1789,-1788zm-10537 0l520 0 0 4845 -520 0 0 -4845zm-10057 2596l-1268 0 0 421c0,956 520,1307 1268,1307l472 0 0 520 -472 0c-1093,0 -1788,-644 -1788,-1788l0 -1268c0,-1144 696,-1788 1788,-1788 2364,0 2364,2596 0,2596zm-1268 -468l1268 0c1645,12 1647,-1647 0,-1660 -863,0 -1268,524 -1268,1359l0 300zm8711 -2128c-697,0 -1232,262 -1528,748 -297,-486 -832,-748 -1528,-748 -1093,0 -1789,644 -1789,1789l0 3057 520 0 0 -3018c0,-956 520,-1307 1268,-1307 748,0 1268,351 1268,1307l0 3018 521 0c0,-1007 -1,-2011 -1,-3018 0,-956 520,-1307 1268,-1307 748,0 1268,351 1268,1307l0 3018 520 0 0 -3057c0,-1145 -696,-1789 -1789,-1789zm5720 4845c-1075,0 -1761,-634 -1761,-1761l0 -3085 512 0 0 3046c0,941 510,1279 1246,1279 736,0 1250,-338 1250,-1279l0 -3046 512 0 0 3085c0,1127 -685,1761 -1761,1761zm-15273 -4845c-1093,0 -1789,644 -1789,1789l0 3057 520 0 0 -3018c0,-956 520,-1307 1268,-1307l0 -520z"/>
  </g>
 </g>
</svg>
